<svg id="eSvuXcYKN3o1" xmlns="http://www.w3.org/2000/svg" xmlns:xlink="http://www.w3.org/1999/xlink" viewBox="0 0 600 600" shape-rendering="geometricPrecision" text-rendering="geometricPrecision"><defs><filter id="eSvuXcYKN3o2-filter" x="-150%" width="400%" y="-150%" height="400%"><feGaussianBlur id="eSvuXcYKN3o2-filter-drop-shadow-0-blur" in="SourceAlpha" stdDeviation="5,5"/><feOffset id="eSvuXcYKN3o2-filter-drop-shadow-0-offset" dx="0" dy="0" result="tmp"/><feFlood id="eSvuXcYKN3o2-filter-drop-shadow-0-flood" flood-color="#f77e22"/><feComposite id="eSvuXcYKN3o2-filter-drop-shadow-0-composite" operator="in" in2="tmp"/><feMerge id="eSvuXcYKN3o2-filter-drop-shadow-0-merge"><feMergeNode id="eSvuXcYKN3o2-filter-drop-shadow-0-merge-node-1"/><feMergeNode id="eSvuXcYKN3o2-filter-drop-shadow-0-merge-node-2" in="SourceGraphic"/></feMerge></filter></defs><g id="eSvuXcYKN3o2" transform="matrix(.981627-.190809 0.190809 0.981627-40.253953 83.739703)" filter="url(#eSvuXcYKN3o2-filter)"><path d="M379.651,414.073c63.347,0,114.701-51.353,114.701-114.701c0-63.347-51.354-114.701-114.701-114.701-63.348,0-114.701,51.354-114.701,114.701c0,63.348,51.353,114.701,114.701,114.701Z" transform="translate(-.4835 0.72)" fill="#ffb177"/><path d="M379.649,154.014c5.681,0,10.285-4.604,10.285-10.284v-46.4456C389.934,91.6047,385.33,87,379.649,87s-10.284,4.6047-10.284,10.2844v46.4456c0,5.68,4.605,10.284,10.284,10.284Z" transform="translate(-.4835 0)" fill="#f67e24"/><path d="M292.923,169.725c2.861,4.954,9.134,6.601,14.049,3.764c4.92-2.84,6.604-9.13,3.764-14.05l-9.104-15.765c-2.841-4.919-9.131-6.604-14.048-3.764-4.92,2.84-6.604,9.13-3.764,14.05c0,0,9.102,15.762,9.103,15.765Z" transform="translate(-.4835 0)" fill="#ffb177"/><path d="M553.496,289.088h-18.203c-5.681,0-10.284,4.605-10.284,10.284c0,5.68,4.603,10.285,10.284,10.285h18.203c5.681,0,10.285-4.605,10.285-10.285c0-5.679-4.605-10.284-10.285-10.284Z" fill="#ffb177"/><path d="M452.328,173.489c4.753,2.744,11.269,1.05,14.049-3.764l9.102-15.766c2.84-4.918,1.155-11.208-3.764-14.048-4.922-2.843-11.211-1.155-14.049,3.764l-9.102,15.765c-2.84,4.919-1.155,11.209,3.764,14.049Z" fill="#ffb177"/><path d="M559.805,391.509l-40.223-23.223c-4.921-2.843-11.21-1.155-14.048,3.764-2.84,4.919-1.155,11.208,3.764,14.048c0,0,40.202,23.211,40.223,23.224c4.773,2.756,11.206,1.16,14.048-3.764c2.842-4.919,1.155-11.209-3.764-14.049Z" fill="#f67e24"/><path d="M514.45,231.775c1.767.022,3.545-.4,5.132-1.318.018-.011,40.223-23.223,40.223-23.223c4.919-2.84,6.604-9.13,3.764-14.049-2.839-4.918-9.132-6.605-14.048-3.764l-40.223,23.224c-4.919,2.84-6.604,9.13-3.764,14.048c1.851,3.206,5.364,5.04,8.916,5.082Z" fill="#f67e24"/><path d="M494.349,299.369c0,63.352-51.354,114.705-114.692,114.705-15.289,0-29.865-2.989-43.194-8.419c4.237.48,8.557.727,12.917.727c63.352,0,114.705-51.354,114.705-114.705c0-48.076-29.578-89.241-71.552-106.286c57.278,6.39,101.816,54.987,101.816,113.978Z" transform="translate(0 0.719)" fill="#f77e24"/></g><g id="eSvuXcYKN3o11" transform="translate(1.262301 0.003326)"><path d="M306.274,478.689c48.316,0,88.249-38.819,88.315-87.135.059-43.255-31.364-79.159-72.623-86.129-2.233-.377-3.978-2.121-4.361-4.353-9.325-54.328-56.845-95.603-113.932-95.177-63.127.471-114.3965,52.621-113.8415,115.748.043,4.915.396,9.755,1.039,14.503.362,2.67-1.273,5.228-3.881,5.903-30.31,7.845-52.593,35.631-51.977,68.535.71,37.981,32.378,68.106,70.3645,68.106h200.897v-.001Z" fill="#7297ba"/><path d="M394.585,391.555c-.043,35.768-21.937,66.325-52.91,79.782c19.128-15.946,31.379-39.784,31.411-66.528.053-43.255-29.221-73.822-70.479-80.797-2.232-.374-3.973-2.115-4.358-4.347-9.324-54.331-58.999-100.939-116.085-100.523-17.067.128-33.269,4.037-47.816,10.926c19.214-14.963,43.255-23.977,69.326-24.17c57.086-.427,104.603,40.842,113.927,95.172.384,2.232,2.136,3.973,4.368,4.358c41.259,6.965,72.68,42.872,72.616,86.127Z" fill="#476d90"/></g><g id="eSvuXcYKN3o14" transform="translate(.000001 0)"><path d="M490.031,512.336c35.964,0,66.183-29.423,65.994-65.387-.165-31.521-22.76-57.719-52.635-63.488-2.542-.491-4.528-2.441-5.011-4.985-7.688-40.517-43.954-70.915-87.042-69.422-44.502,1.542-80.702,37.607-82.407,82.103-.17,4.445,0,8.817.485,13.094.348,3.065-1.593,5.877-4.547,6.763-21.568,6.467-37.221,26.611-36.862,50.366.429,28.4,24.135,50.956,52.538,50.956h149.487Z" transform="translate(.004272 0)" fill="#a0b9d0"/><path d="M556.029,446.951c.143,27.533-17.547,51.237-41.979,60.832c12.614-11.921,20.555-28.69,20.463-47.168-.163-31.52-22.76-57.717-52.639-63.489-2.539-.489-4.528-2.437-5.007-4.976-7.689-40.524-43.95-70.922-87.044-69.423-11.105.387-21.699,2.933-31.366,7.205c14.317-12.42,32.753-20.187,52.883-20.88c43.084-1.489,79.356,28.909,87.044,69.423.479,2.549,2.468,4.497,5.007,4.987c29.878,5.772,52.465,31.969,52.638,63.489Z" fill="#678fb4"/></g>
</svg>
