<svg id="eUnhkawGodt1" xmlns="http://www.w3.org/2000/svg" xmlns:xlink="http://www.w3.org/1999/xlink" viewBox="0 0 600 600" shape-rendering="geometricPrecision" text-rendering="geometricPrecision"><g id="eUnhkawGodt2"><path d="M474.555,360.581c44.309,0,81.493-36.249,81.445-80.558-.043-39.746-28.909-72.72-66.817-79.2-2.141-.366-3.83-2.026-4.2-4.166-8.65-50.04-52.445-88.041-105.047-87.649-58.216.435-105.498,48.528-104.986,106.744.054,6.092.623,12.061,1.665,17.866-30.111,5.614-52.815,32.281-52.219,64.156.655,35.026,29.859,62.808,64.891,62.808l185.268-.001Z" fill="#7297ba"/><path d="M555.997,280.024c.031,29.422-16.347,55.295-40.329,69.347c12.043-14.031,19.365-32.137,19.345-51.824-.041-39.744-28.907-72.721-66.818-79.2-2.132-.36-3.822-2.019-4.193-4.162-8.654-50.036-52.447-88.039-105.048-87.648-20.47.154-39.6,6.199-55.764,16.511c19.172-20.707,46.492-33.818,76.749-34.045c52.601-.392,96.394,37.612,105.048,87.658.371,2.132,2.06,3.791,4.193,4.162c37.91,6.48,66.776,39.456,66.817,79.201Z" fill="#476d90"/></g><g id="eUnhkawGodt5" transform="translate(.000001 0)"><path d="M323.617,371.898c35.393,0,65.132-28.956,64.947-64.349-.164-31.247-22.724-57.178-52.443-62.602-2.119-.387-3.784-2.021-4.168-4.14-7.301-40.195-43.148-70.443-85.78-68.965-43.796,1.518-79.421,37.01-81.099,80.8-.179,4.683.025,9.284.583,13.775.31,2.498-1.296,4.836-3.72,5.516-21.669,6.08-37.496,26.123-37.138,49.817.422,27.949,23.752,50.147,51.704,50.147h147.114v.001Z" fill="#a0b9d0"/><path d="M388.561,307.552c.144,27.743-18.094,51.526-43.045,60.52c13.464-11.816,22.04-28.996,21.937-48.055-.165-31.245-22.726-57.185-52.447-62.604-2.112-.391-3.781-2.019-4.162-4.141-7.304-40.198-43.154-70.444-85.783-68.96-10.065.35-19.711,2.494-28.591,6.12c13.722-11.064,30.971-17.936,49.7-18.585c42.629-1.484,78.479,28.763,85.783,68.96.381,2.122,2.05,3.75,4.172,4.141c29.711,5.419,52.271,31.358,52.436,62.604Z" fill="#678fb4"/></g><g id="eUnhkawGodt8" transform="translate(.000001 0)"><path d="M424.123,379.912c-1.194-26.787-23.514-48.242-50.327-48.437-23.932-.175-44.066,16.215-49.619,38.385-.212.845-1.257,1.126-1.888.525-4.472-4.26-10.524-6.875-17.187-6.875-2.386,0-4.694.335-6.879.962-.782.224-1.549-.415-1.443-1.221.367-2.809.494-5.694.357-8.634-1.163-24.936-21.582-45.121-46.53-46.008-27.505-.978-50.11,21.029-50.11,48.316v.032c.001,1.02-1.229,1.547-1.932.808-5.996-6.305-14.466-10.235-23.853-10.235-.199,0-.397.002-.596.005-.562.01-1.04-.379-1.14-.932-4.531-24.979-26.584-43.854-52.966-43.433-27.754.443-50.75,22.71-52.031,50.438-.165,3.563.023,7.052.532,10.436.083.551-.24,1.069-.769,1.245C53.946,369.888,44,382.907,44,398.25c0,19.186,15.554,34.74,33.254,34.74h295.487c18.51,0,35.926-9.662,44.95-25.824c4.481-8.027,6.873-17.371,6.432-27.254Z" fill="#cddbe7"/><path d="M417.695,407.161c-7.819,14.011-21.943,23.138-37.622,25.322c6.871-4.358,12.702-10.364,16.792-17.688c4.481-8.025,6.871-17.369,6.428-27.248-1.195-26.785-23.509-48.243-50.324-48.439-2.38-.02-4.718.134-7.016.433c8.015-5.172,17.585-8.139,27.846-8.066c26.805.196,49.129,21.654,50.324,48.439.444,9.878-1.947,19.221-6.428,27.247Z" fill="#89a8c5"/></g><g id="eUnhkawGodt11"><path d="M223.904,228.214h-132.502c-4.267,0-7.726-3.459-7.726-7.726s3.459-7.726,7.726-7.726h132.502c4.267,0,7.726,3.459,7.726,7.726s-3.459,7.726-7.726,7.726Z" fill="#a0abb5"/><path d="M135.682,187.778h-75.671c-4.267,0-7.726-3.459-7.726-7.726s3.459-7.726,7.726-7.726h75.671c4.267,0,7.726,3.459,7.726,7.726s-3.459,7.726-7.726,7.726Z" fill="#a0abb5"/><path d="M119.234,156.705h-21.387c-4.267,0-7.726-3.459-7.726-7.726s3.459-7.726,7.726-7.726h21.388c4.267,0,7.726,3.459,7.726,7.726s-3.459,7.726-7.727,7.726Z" fill="#a0abb5"/></g><g id="eUnhkawGodt15" transform="translate(0 0.000001)"><path d="M547.306,451.67h-104.905c-4.267,0-7.726-3.459-7.726-7.726s3.459-7.726,7.726-7.726h104.905c4.267,0,7.726,3.459,7.726,7.726s-3.459,7.726-7.726,7.726Z" fill="#a0abb5"/><path d="M542.559,411.516h-30.925c-4.267,0-7.726-3.459-7.726-7.726s3.459-7.726,7.726-7.726h30.925c4.267,0,7.726,3.459,7.726,7.726.001,4.266-3.459,7.726-7.726,7.726Z" fill="#a0abb5"/><path d="M478.343,491.823h-14.652c-4.267,0-7.726-3.459-7.726-7.726s3.459-7.726,7.726-7.726h14.652c4.267,0,7.726,3.459,7.726,7.726s-3.459,7.726-7.726,7.726Z" fill="#a0abb5"/></g>

</svg>
