<svg id="e6LBIPVdugj1" xmlns="http://www.w3.org/2000/svg" xmlns:xlink="http://www.w3.org/1999/xlink" viewBox="0 0 600 600" shape-rendering="geometricPrecision" text-rendering="geometricPrecision"><g id="e6LBIPVdugj2" transform="matrix(.98 0 0 0.98 7.5311 3.66847)"><path d="M458.23,303.847c43.138,0,78.791-34.272,78.85-76.93.053-38.189-28.003-69.888-64.839-76.041-1.994-.333-3.552-1.873-3.893-3.843-8.326-47.9645-50.753-84.4059-101.721-84.0301-56.362.4165-102.138,46.4581-101.642,102.1911.038,4.339.353,8.612.928,12.804.322,2.358-1.137,4.616-3.465,5.212-27.062,6.925-46.956,31.457-46.407,60.507.634,33.533,28.907,60.13,62.824,60.13h179.365Z" fill="#7297ba"/><path d="M537.076,226.918c-.038,31.579-19.597,58.569-47.251,70.449c17.078-14.077,28.027-35.136,28.055-58.747.048-38.189-26.088-65.176-62.924-71.333-1.993-.331-3.548-1.867-3.891-3.839-8.325-47.967-52.676-89.1163-103.643-88.7489-15.238.1132-29.727,3.5681-42.714,9.6496c17.154-13.2103,38.642-21.1724,61.918-21.3421c50.968-.3767,93.392,36.0582,101.716,84.0254.343,1.97,1.907,3.508,3.9,3.847c36.838,6.149,64.891,37.851,64.834,76.039Z" fill="#476d90"/></g><g id="e6LBIPVdugj5" transform="translate(.000001 0)"><path d="M260.177,303.847c35.043,0,64.536-28.349,64.409-63-.112-30.763-22.608-56.292-52.218-61.534-1.979-.351-3.533-1.859-3.887-3.816-7.154-39.521-42.754-69.289-85.107-67.838-43.433,1.488-78.762,36.293-80.427,79.237-.18,4.647.029,9.212.598,13.666.297,2.335-1.132,4.554-3.426,5.175-21.6648,5.877-37.5149,25.651-37.1115,49.032.4729,27.37,23.5923,49.077,51.2745,49.077h145.895v.001Z" fill="#a0b9d0"/><path d="M324.585,240.849c.095,27.232-18.1,50.576-42.903,59.317c14.055-11.58,23.116-28.869,23.049-48.087-.114-30.768-22.609-56.294-52.217-61.536-1.983-.349-3.538-1.858-3.891-3.819-7.152-39.519-42.748-69.287-85.105-67.835-9.831.34-19.251,2.379-27.957,5.849c13.359-10.184,29.902-16.466,47.811-17.078c42.357-1.452,77.954,28.316,85.105,67.834.362,1.962,1.907,3.47,3.89,3.819c29.609,5.243,52.103,30.768,52.218,61.536Z" fill="#678fb4"/></g><g id="e6LBIPVdugj8" transform="translate(.000001 0.000001)"><g transform="translate(0-28)"><path d="M322.341,377.32c-3.95,0-7.153-3.167-7.153-7.073v-20.594c0-3.907,3.203-7.073,7.153-7.073c3.951,0,7.153,3.166,7.153,7.073v20.594c0,3.906-3.203,7.073-7.153,7.073Z" fill="#94c6f5"/><path d="M141.115,414.81c-3.951,0-7.153-3.167-7.153-7.074v-39.222c0-3.907,3.202-7.074,7.153-7.074c3.95,0,7.153,3.167,7.153,7.074v39.222c-.001,3.907-3.204,7.074-7.153,7.074Z" transform="translate(0-10.40335)" fill="#94c6f5"/><path d="M228.084,538c-3.951,0-7.153-3.167-7.153-7.073v-153.824c0-3.907,3.202-7.074,7.153-7.074s7.153,3.167,7.153,7.074v153.824c0,3.906-3.202,7.073-7.153,7.073Z" transform="translate(0-18.99235)" fill="#94c6f5"/><path d="M408.379,422.167c-3.951,0-7.153-3.167-7.153-7.074v-65.44c0-3.907,3.202-7.073,7.153-7.073s7.153,3.166,7.153,7.073v65.44c0,3.907-3.202,7.074-7.153,7.074Z" fill="#94c6f5"/><path d="M493.916,444.901c-3.951,0-7.153-3.166-7.153-7.073v-65.44c0-3.907,3.202-7.074,7.153-7.074s7.153,3.167,7.153,7.074v65.44c0,3.907-3.202,7.073-7.153,7.073Z" transform="translate(0-22.390499)" fill="#94c6f5"/></g><g transform="translate(.000001-28.999999)"><path d="M367.969,396.689c-3.95,0-7.153-3.167-7.153-7.074v-38.726c0-3.907,3.203-7.073,7.153-7.073c3.951,0,7.153,3.166,7.153,7.073v38.726c0,3.907-3.202,7.074-7.153,7.074Z" fill="#94c6f5"/><path d="M275.867,448.735c-3.951,0-7.153-3.166-7.153-7.073v-91.384c0-3.907,3.202-7.074,7.153-7.074s7.153,3.167,7.153,7.074v91.384c0,3.907-3.203,7.073-7.153,7.073Z" fill="#94c6f5"/><path d="M188.952,404.345c-3.951,0-7.153-3.166-7.153-7.073v-47.619c0-3.907,3.202-7.073,7.153-7.073s7.153,3.166,7.153,7.073v47.619c0,3.907-3.203,7.073-7.153,7.073Z" fill="#94c6f5"/><path d="M106.243,448.735c-3.951,0-7.1528-3.166-7.1528-7.073v-91.384c0-3.907,3.2018-7.074,7.1528-7.074s7.153,3.167,7.153,7.074v91.384c0,3.907-3.202,7.073-7.153,7.073Z" transform="translate(0 0.7195)" fill="#94c6f5"/><path d="M456.217,404.345c-3.95,0-7.152-3.166-7.152-7.073v-47.619c0-3.907,3.202-7.073,7.152-7.073c3.951,0,7.153,3.166,7.153,7.073v47.619c0,3.907-3.203,7.073-7.153,7.073Z" fill="#94c6f5"/></g></g>
</svg>
