<svg id="e5H2bD1XVxw1" xmlns="http://www.w3.org/2000/svg" xmlns:xlink="http://www.w3.org/1999/xlink" viewBox="0 0 600 600" shape-rendering="geometricPrecision" text-rendering="geometricPrecision"><g id="e5H2bD1XVxw2" transform="translate(.000001 0)"><path d="M501.68,403.433l-28.771-16.611l4-.874c6.248-1.364,10.207-7.535,8.842-13.782-1.364-6.247-7.531-10.204-13.783-8.842l-28.849,6.3-19.494-11.255l17.527-3.828c6.247-1.365,10.207-7.535,8.841-13.783-1.363-6.246-7.531-10.205-13.782-8.842l-42.376,9.254-7.008-4.046v-73.247l7.008-4.046l42.376,9.254c.832.181,1.662.268,2.48.268c5.325,0,10.119-3.696,11.301-9.11c1.366-6.248-2.594-12.419-8.841-13.783l-17.527-3.828l19.494-11.255l28.849,6.3c.833.182,1.664.269,2.481.269c5.325,0,10.119-3.696,11.301-9.11c1.366-6.247-2.594-12.419-8.841-13.783l-4.001-.873l28.771-16.612c5.538-3.197,7.436-10.279,4.238-15.817-3.198-5.537-10.278-7.436-15.817-4.238l-28.772,16.612l1.244-3.902c1.942-6.093-1.422-12.607-7.514-14.549-6.096-1.943-12.607,1.423-14.549,7.515l-8.969,28.133-19.496,11.256l5.449-17.092c1.941-6.093-1.423-12.606-7.515-14.549-6.095-1.942-12.606,1.422-14.549,7.516l-13.173,41.324-7.009,4.047L311.812,207.2v-8.092l29.202-32.071c4.305-4.728,3.963-12.052-.766-16.357-4.73-4.307-12.053-3.961-16.357.765l-12.079,13.266v-22.514l19.88-21.833c4.305-4.729,3.962-12.051-.766-16.357-4.73-4.3066-12.053-3.961-16.357.766l-2.757,3.028v-33.2219C311.816,68.1842,306.632,63,300.237,63s-11.579,5.1842-11.579,11.5791v33.2219l-2.758-3.028c-4.303-4.727-11.627-5.0717-16.357-.766-4.727,4.306-5.071,11.628-.765,16.357l19.88,21.833v22.513l-12.08-13.266c-4.303-4.727-11.627-5.072-16.357-.765-4.728,4.305-5.071,11.628-.765,16.358l29.202,32.07v8.092l-63.435,36.624-7.009-4.047-13.173-41.324c-1.941-6.094-8.456-9.458-14.548-7.516-6.093,1.942-9.457,8.456-7.515,14.549l5.449,17.092-19.497-11.256-8.968-28.133c-1.942-6.093-8.456-9.458-14.549-7.515s-9.457,8.456-7.515,14.549l1.244,3.902-28.772-16.611c-5.539-3.198-12.6187-1.301-15.8166,4.237s-1.2998,12.62,4.2379,15.817l28.7707,16.612-4,.874c-6.247,1.364-10.206,7.535-8.841,13.782c1.182,5.415,5.975,9.11,11.3,9.11.818,0,1.649-.087,2.481-.269l28.849-6.3l19.495,11.255-17.527,3.828c-6.248,1.365-10.207,7.535-8.842,13.783c1.182,5.415,5.976,9.11,11.301,9.11.818,0,1.649-.087,2.481-.268l42.375-9.254l7.009,4.046v73.247l-7.009,4.046-42.375-9.254c-6.246-1.362-12.419,2.595-13.782,8.842-1.366,6.248,2.593,12.419,8.841,13.783l17.527,3.828-19.495,11.255-28.849-6.3c-6.249-1.361-12.419,2.596-13.782,8.842-1.365,6.247,2.594,12.419,8.841,13.782l4,.874-28.7668,16.612c-5.5377,3.197-7.4359,10.28-4.2379,15.817c2.1449,3.715,6.0367,5.791,10.0377,5.791c1.964,0,3.955-.5,5.779-1.553l28.772-16.611-1.244,3.902c-1.942,6.093,1.422,12.606,7.515,14.549c1.17.373,2.354.55,3.52.55c4.906,0,9.459-3.142,11.029-8.066l8.968-28.132l19.496-11.256-5.448,17.092c-1.942,6.093,1.422,12.606,7.515,14.549c1.169.373,2.354.55,3.519.55c4.906,0,9.46-3.142,11.029-8.066l13.173-41.324l7.009-4.047l63.434,36.624v8.092l-29.201,32.07c-4.306,4.729-3.963,12.053.765,16.358c2.22,2.021,5.011,3.017,7.792,3.017c3.146,0,6.281-1.274,8.565-3.783l12.079-13.266v22.513L268.78,480.636c-4.306,4.729-3.963,12.051.765,16.357c2.22,2.021,5.011,3.017,7.792,3.017c3.146,0,6.281-1.274,8.565-3.783l2.757-3.028v33.222c0,6.395,5.185,11.579,11.58,11.579c6.394,0,11.579-5.184,11.579-11.579v-33.222l2.757,3.028c2.284,2.509,5.419,3.783,8.565,3.783c2.781,0,5.573-.997,7.792-3.017c4.728-4.306,5.071-11.628.765-16.357l-19.879-21.833v-22.513l12.079,13.266c2.284,2.509,5.419,3.783,8.565,3.783c2.781,0,5.573-.996,7.792-3.017c4.728-4.305,5.071-11.628.765-16.358l-29.201-32.07v-8.092l63.434-36.624l7.009,4.047l13.173,41.324c1.569,4.924,6.123,8.066,11.029,8.066c1.165,0,2.35-.177,3.519-.55c6.093-1.942,9.457-8.456,7.515-14.549l-5.448-17.092l19.496,11.256l8.968,28.132c1.57,4.924,6.123,8.066,11.029,8.066c1.166,0,2.35-.177,3.52-.55c6.093-1.943,9.457-8.456,7.515-14.549l-1.244-3.902l28.772,16.611c1.824,1.053,3.814,1.553,5.779,1.553c4.001,0,7.893-2.077,10.038-5.791c3.194-5.538,1.296-12.62-4.242-15.817ZM311.816,233.938l40.277,23.253-25.138,14.513c-4.275-3.969-9.431-7.001-15.139-8.763v-29.003Zm-23.158,0v29.003c-5.709,1.763-10.866,4.794-15.14,8.763l-25.136-14.513l40.276-23.253Zm-51.855,43.308l25.115,14.501c-.643,2.815-.983,5.745-.983,8.753s.34,5.938.983,8.753l-25.115,14.501v-46.508Zm51.855,89.816l-40.277-23.253l25.136-14.513c4.275,3.969,9.431,7.001,15.14,8.763l.001,29.003Zm11.579-50.419c-8.902,0-16.144-7.242-16.144-16.143c0-8.902,7.242-16.143,16.144-16.143c8.901,0,16.143,7.242,16.143,16.143c0,8.902-7.242,16.143-16.143,16.143Zm11.579,50.419v-29.003c5.708-1.763,10.865-4.794,15.139-8.763l25.137,14.513-40.276,23.253Zm51.855-43.308l-25.116-14.501c.643-2.815.983-5.745.983-8.753s-.34-5.938-.983-8.753l25.116-14.501v46.508Z" fill="#a0b9d0"/><path d="M501.68,403.429l-28.766-16.61l3.995-.871c6.25-1.366,10.207-7.54,8.84-13.781-1.357-6.25-7.53-10.207-13.782-8.841l-28.843,6.299-19.496-11.258l17.527-3.823c6.241-1.367,10.207-7.541,8.841-13.791-1.367-6.241-7.531-10.198-13.782-8.841l-42.376,9.252-7.005-4.042v-73.245l7.005-4.043l42.376,9.252c.832.182,1.663.267,2.475.267c5.324,0,10.121-3.699,11.306-9.108c1.366-6.25-2.6-12.424-8.841-13.79l-17.527-3.824l19.496-11.258l28.843,6.299c.832.182,1.663.277,2.485.277c5.323,0,10.121-3.699,11.296-9.118c1.367-6.241-2.59-12.415-8.84-13.781l-3.995-.87l28.766-16.611c5.534-3.201,7.436-10.283,4.233-15.817-3.192-5.543-10.273-7.445-15.817-4.243l-28.766,16.61l1.242-3.899c1.94-6.088-1.424-12.606-7.512-14.546-6.097-1.95-12.606,1.424-14.555,7.512l-8.965,28.135-19.496,11.258l5.448-17.097c1.94-6.088-1.424-12.606-7.512-14.546-6.097-1.94-12.606,1.424-14.546,7.512l-13.179,41.324-7.005,4.042-.402-.229c-3.775,11.191-8.027,22.841-12.806,34.596l1.624-.937v46.505l-17.709-10.226c-3.499,6.881-7.206,13.675-11.154,20.299l17.289,9.987-40.273,23.252c-8.048,9.862-15.741,18.75-23.616,26.482l.449.258v8.085L259.453,433.96c-4.31,4.73-3.966,12.051.765,16.361c2.217,2.017,5.008,3.011,7.789,3.011c3.154,0,6.288-1.271,8.572-3.775l12.071-13.275v22.516l-19.879,21.838c-4.301,4.721-3.956,12.051.765,16.352c2.226,2.027,5.017,3.02,7.798,3.02c3.145,0,6.279-1.28,8.563-3.784l2.753-3.03v33.22c0,6.394,5.19,11.583,11.583,11.583c6.394,0,11.583-5.19,11.583-11.583v-33.22l2.752,3.03c2.284,2.504,5.419,3.784,8.563,3.784c2.782,0,5.572-1.004,7.799-3.02c4.721-4.301,5.065-11.631.764-16.352l-19.878-21.838v-22.516l12.071,13.275c2.284,2.504,5.418,3.775,8.572,3.775c2.781,0,5.572-.994,7.789-3.011c4.731-4.31,5.075-11.631.765-16.361l-29.197-32.074v-8.085l63.43-36.623l7.005,4.043l13.179,41.325c1.568,4.921,6.117,8.065,11.029,8.065c1.166,0,2.351-.181,3.517-.554c6.088-1.939,9.452-8.458,7.512-14.545l-5.448-17.098l19.497,11.258l8.964,28.136c1.577,4.921,6.126,8.066,11.029,8.066c1.166,0,2.351-.182,3.527-.554c6.087-1.94,9.451-8.458,7.512-14.546l-1.243-3.9l28.767,16.611c1.825,1.051,3.813,1.548,5.781,1.548c4.004,0,7.894-2.073,10.036-5.792c3.205-5.528,1.303-12.611-4.23-15.812Z" fill="#7297ba"/></g>

</svg>
