<svg id="exurLjeZmEN1" xmlns="http://www.w3.org/2000/svg" xmlns:xlink="http://www.w3.org/1999/xlink" viewBox="0 0 600 600" shape-rendering="geometricPrecision" text-rendering="geometricPrecision"><defs><filter id="exurLjeZmEN2-filter" x="-150%" width="400%" y="-150%" height="400%"><feGaussianBlur id="exurLjeZmEN2-filter-drop-shadow-0-blur" in="SourceAlpha" stdDeviation="20,20"/><feOffset id="exurLjeZmEN2-filter-drop-shadow-0-offset" dx="0" dy="0" result="tmp"/><feFlood id="exurLjeZmEN2-filter-drop-shadow-0-flood" flood-color="#de630d"/><feComposite id="exurLjeZmEN2-filter-drop-shadow-0-composite" operator="in" in2="tmp"/><feMerge id="exurLjeZmEN2-filter-drop-shadow-0-merge"><feMergeNode id="exurLjeZmEN2-filter-drop-shadow-0-merge-node-1"/><feMergeNode id="exurLjeZmEN2-filter-drop-shadow-0-merge-node-2" in="SourceGraphic"/></feMerge></filter></defs><g id="exurLjeZmEN2" filter="url(#exurLjeZmEN2-filter)"><path d="M550.454,303.268l-19.406,10.875c-26.183,14.673-33.95,48.758-16.711,73.327l12.774,18.205c1.683,2.399.085,5.713-2.839,5.891l-22.14,1.344c-29.986,1.822-51.814,29.176-46.939,58.818l3.601,21.895c.475,2.888-2.397,5.181-5.108,4.077l-20.622-8.397c-27.793-11.317-59.279,3.858-67.742,32.648l-6.278,21.356c-.826,2.811-4.413,3.628-6.375,1.453l-14.851-16.462c-20.128-22.313-55.141-22.313-75.269,0L247.698,544.76c-1.962,2.175-5.549,1.358-6.375-1.453l-6.278-21.357c-8.463-28.79-39.948-43.964-67.741-32.648l-20.623,8.397c-2.711,1.104-5.584-1.189-5.108-4.077l3.601-21.895c4.875-29.642-16.953-56.996-46.9389-58.817L76.096,411.565c-2.9247-.177-4.5226-3.492-2.839-5.891L86.0307,387.47c17.2393-24.569,9.4718-58.654-16.7102-73.327L49.915,303.268c-2.5533-1.43-2.5533-5.105,0-6.536l19.4055-10.876c26.183-14.673,33.9505-48.757,16.7112-73.327L73.2579,194.325c-1.6825-2.399-.0847-5.714,2.8391-5.891l22.1401-1.345c29.9859-1.821,51.8139-29.175,46.9389-58.817l-3.602-21.896c-.475-2.888,2.397-5.182,5.108-4.077l20.622,8.397c27.793,11.317,59.279-3.858,67.742-32.6484l6.278-21.356c.826-2.8105,4.413-3.6281,6.375-1.453l14.851,16.462c20.128,22.3135,55.141,22.3135,75.269,0l14.85-16.462c1.962-2.1751,5.549-1.3575,6.375,1.453l6.278,21.357c8.463,28.7904,39.948,43.9644,67.741,32.6484l20.623-8.397c2.711-1.105,5.584,1.189,5.108,4.077l-3.601,21.895c-4.875,29.642,16.953,56.996,46.939,58.817l22.139,1.345c2.925.177,4.523,3.492,2.839,5.891l-12.774,18.203c-17.239,24.57-9.472,58.654,16.71,73.327l19.406,10.876c2.555,1.431,2.555,5.106.002,6.537Z" fill="#f67e24"/><path d="M550.452,303.267L531.05,314.144c-26.189,14.673-33.952,48.757-16.712,73.323l12.776,18.204c1.684,2.404.081,5.712-2.841,5.895l-22.141,1.339c-29.985,1.827-51.811,29.184-46.941,58.824l3.602,21.897c.477,2.882-2.394,5.175-5.103,4.07l-20.629-8.392c-27.793-11.314-59.28,3.855-67.743,32.643l-6.271,21.36c-.832,2.81-4.414,3.632-6.382,1.451l-14.846-16.459c-7.489-8.3-17.037-13.506-27.113-15.637C412.461,488.948,491.54,410.116,491.54,301.136c0-69.843-34.402-144.86-83.543-187.032c8.219.974,16.804-.051,25.063-3.409l20.629-8.392c2.709-1.107,5.58,1.187,5.103,4.069L455.19,128.27c-4.87,29.639,16.955,56.996,46.941,58.823l22.141,1.34c2.922.182,4.525,3.49,2.841,5.896l-12.776,18.203c-17.24,24.567-9.477,58.65,16.712,73.323l19.402,10.878c2.558,1.43,2.558,5.103.001,6.534Z" fill="#de6409"/><path d="M300.183,471.773c94.868,0,171.774-76.906,171.774-171.774s-76.906-171.773-171.774-171.773-171.773,76.905-171.773,171.773s76.905,171.774,171.773,171.774Z" fill="#ffb177"/><path d="M471.954,299.999c0,94.865-76.904,171.77-171.77,171.77-16.752,0-32.955-2.393-48.257-6.868c9.092,1.492,18.445,2.261,27.963,2.261c94.865,0,171.77-76.905,171.77-171.77c0-78.102-52.12-144.022-123.465-164.895c81.541,13.385,143.759,84.175,143.759,169.502Z" fill="#ff9e55"/></g>

</svg>
