<svg id="ebRd8EKNQyi1" xmlns="http://www.w3.org/2000/svg" xmlns:xlink="http://www.w3.org/1999/xlink" viewBox="0 0 608 608" shape-rendering="geometricPrecision" text-rendering="geometricPrecision"><defs><filter id="ebRd8EKNQyi9-filter" x="-150%" width="400%" y="-150%" height="400%"><feGaussianBlur id="ebRd8EKNQyi9-filter-drop-shadow-0-blur" in="SourceAlpha" stdDeviation="8,8"/><feOffset id="ebRd8EKNQyi9-filter-drop-shadow-0-offset" dx="0" dy="0" result="tmp"/><feFlood id="ebRd8EKNQyi9-filter-drop-shadow-0-flood" flood-color="#ffb322"/><feComposite id="ebRd8EKNQyi9-filter-drop-shadow-0-composite" operator="in" in2="tmp"/><feMerge id="ebRd8EKNQyi9-filter-drop-shadow-0-merge"><feMergeNode id="ebRd8EKNQyi9-filter-drop-shadow-0-merge-node-1"/><feMergeNode id="ebRd8EKNQyi9-filter-drop-shadow-0-merge-node-2" in="SourceGraphic"/></feMerge></filter><filter id="ebRd8EKNQyi13-filter" x="-150%" width="400%" y="-150%" height="400%"><feGaussianBlur id="ebRd8EKNQyi13-filter-drop-shadow-0-blur" in="SourceAlpha" stdDeviation="8,8"/><feOffset id="ebRd8EKNQyi13-filter-drop-shadow-0-offset" dx="0" dy="0" result="tmp"/><feFlood id="ebRd8EKNQyi13-filter-drop-shadow-0-flood" flood-color="#ffc432"/><feComposite id="ebRd8EKNQyi13-filter-drop-shadow-0-composite" operator="in" in2="tmp"/><feMerge id="ebRd8EKNQyi13-filter-drop-shadow-0-merge"><feMergeNode id="ebRd8EKNQyi13-filter-drop-shadow-0-merge-node-1"/><feMergeNode id="ebRd8EKNQyi13-filter-drop-shadow-0-merge-node-2" in="SourceGraphic"/></feMerge></filter><filter id="ebRd8EKNQyi17-filter" x="-150%" width="400%" y="-150%" height="400%"><feGaussianBlur id="ebRd8EKNQyi17-filter-drop-shadow-0-blur" in="SourceAlpha" stdDeviation="10,10"/><feOffset id="ebRd8EKNQyi17-filter-drop-shadow-0-offset" dx="0" dy="0" result="tmp"/><feFlood id="ebRd8EKNQyi17-filter-drop-shadow-0-flood" flood-color="#ffb322"/><feComposite id="ebRd8EKNQyi17-filter-drop-shadow-0-composite" operator="in" in2="tmp"/><feMerge id="ebRd8EKNQyi17-filter-drop-shadow-0-merge"><feMergeNode id="ebRd8EKNQyi17-filter-drop-shadow-0-merge-node-1"/><feMergeNode id="ebRd8EKNQyi17-filter-drop-shadow-0-merge-node-2" in="SourceGraphic"/></feMerge></filter></defs><g><g id="ebRd8EKNQyi3" transform="translate(0 0.000001)"><path d="M266.666,347.175c7.014,0,13.79-1.226,20.109-3.476c23.249-8.273,40.307-30.387,40.214-56.192-.106-29.134-21.174-53.313-48.906-58.278-1.853-.331-3.308-1.761-3.639-3.614-6.701-37.431-40.043-65.625-79.708-64.25-17.035.591-32.738,6.715-45.352,16.621-17.508,13.75-29.065,34.785-29.972,58.425-.168,4.401.028,8.724.56,12.943.279,2.211-1.06,4.312-3.208,4.902-20.2902,5.566-35.1349,24.294-34.7569,46.439.4429,25.921,22.0959,46.48,48.0209,46.48h136.638Z" fill="#a0b9d0"/><path d="M326.986,287.51c.09,25.791-16.942,47.897-40.171,56.175c13.163-10.967,21.64-27.338,21.578-45.539-.107-29.141-21.175-53.316-48.904-58.282-1.858-.33-3.314-1.759-3.644-3.616-6.698-37.428-40.036-65.622-79.705-64.246-9.153.319-17.925,2.228-26.038,5.479-.048.02-.097.039-.146.059c12.512-9.645,28.006-15.594,44.777-16.174c39.669-1.376,73.007,26.819,79.705,64.246.34,1.858,1.786,3.286,3.644,3.617c27.731,4.966,48.797,29.141,48.904,58.281Z" fill="#678fb4"/></g><g id="ebRd8EKNQyi6" transform="translate(.000001 0)"><path d="M465.274,158.227c-1.867-.315-3.326-1.773-3.646-3.64-7.797-45.427-47.532-79.9411-95.268-79.5843-21.821.1626-41.949,7.7107-58.02,20.2395-22.805,17.7778-37.443,45.5818-37.171,76.5448.036,4.11.331,8.157.869,12.127.302,2.233-1.064,4.371-3.245,4.936-25.345,6.559-43.977,29.794-43.462,57.307.594,31.758,27.073,56.948,58.838,56.948h167.985c10.447,0,20.425-2.17,29.479-6.087c25.961-11.231,44.327-36.819,44.367-66.773.049-36.168-26.227-66.19-60.726-72.018Z" fill="#678fb4"/><path d="M465.277,158.231c-1.867-.322-3.331-1.777-3.653-3.644-7.797-45.43-47.528-79.9377-95.262-79.5808-21.799.1608-41.914,7.6913-57.98,20.2034.042-.0202.084-.0405.127-.0598c12.131-5.7225,25.646-8.9622,39.867-9.0685c47.735-.3481,89.271,38.6257,97.068,84.0537.321,1.867,1.777,3.323,3.643,3.636c34.499,5.831,58.978,31.391,58.933,67.559-.027,22.303-10.224,42.201-26.148,55.534-.042.035-.084.07-.126.105c25.899-11.252,44.214-36.813,44.25-66.722.053-36.168-26.22-66.194-60.719-72.016Z" fill="#476d90"/></g><g id="ebRd8EKNQyi9" transform="translate(.000001 0)" filter="url(#ebRd8EKNQyi9-filter)"><path d="M371.311,148.197h35.676c2.867,0,5.474,1.663,6.683,4.264l41.131,88.489c6.791,14.608-3.876,31.329-19.985,31.329h-26.004l22.253,85.666c.543,2.088-2.296,3.283-3.411,1.437L358.907,245.473c-5.148-8.531.995-19.414,10.959-19.414h26.038l-31.278-67.39c-2.266-4.885,1.3-10.472,6.685-10.472Z" fill="#ffc433"/><path d="M431.064,357.94c.544,2.094-2.293,3.29-3.408,1.442l-25.44-42.153-10.683-41.109c-.505-1.945.963-3.844,2.973-3.844h14.308l22.25,85.664Z" fill="#ffb322"/><path d="M434.816,272.276h-18.281c16.114,0,26.781-16.721,19.994-31.322l-41.138-88.492c-1.205-2.601-3.815-4.268-6.679-4.268h18.27c2.874,0,5.474,1.667,6.689,4.268l41.128,88.492c6.789,14.601-3.878,31.322-19.983,31.322Z" fill="#ffb322"/></g><g id="ebRd8EKNQyi13" transform="translate(.000001 0.000001)" filter="url(#ebRd8EKNQyi13-filter)"><path d="M191.731,285.543h-40.277c-3.237,0-6.181,1.877-7.545,4.813L97.4714,390.26c-7.6667,16.494,4.3756,35.37,22.5636,35.37h29.358l-25.124,96.717c-.612,2.357,2.593,3.707,3.852,1.622l77.614-128.601c5.813-9.632-1.123-21.919-12.372-21.919h-29.396l35.312-76.083c2.559-5.515-1.468-11.823-7.548-11.823Z" transform="translate(-1.036826 0)" fill="#ffc433"/><path d="M178.223,295.949c1.801-3.894.367-8.172-2.749-10.409h16.258c6.079,0,10.11,6.311,7.548,11.827l-35.313,76.081-16.988.001c-2.237,0-3.718-2.322-2.775-4.351l34.019-73.149Z" fill="#ffb322"/><path d="M205.736,395.37L128.124,523.968c-1.264,2.084-4.466.735-3.851-1.622l12.262-47.221l48.229-79.901c5.243-8.684.239-19.512-8.974-21.775h17.574c11.244.001,18.187,12.288,12.372,21.921Z" fill="#ffb322"/></g><g id="ebRd8EKNQyi17" transform="translate(.000001 0.000001)" filter="url(#ebRd8EKNQyi17-filter)"><path d="M114.986,162.395c-1.177,0-2.371-.306-3.457-.95-3.23-1.912-4.297-6.082-2.385-9.313l7.884-13.312h-9.912c-2.42,0-4.658-1.286-5.876-3.378-1.217-2.092-1.23-4.673-.035-6.778l15.086-26.555c1.855-3.264,6.004-4.4048,9.268-2.5521c3.264,1.8541,4.406,6.0051,2.552,9.2681l-9.317,16.4h10.159c2.442,0,4.696,1.31,5.905,3.432c1.211,2.121,1.188,4.728-.056,6.83l-13.961,23.574c-1.27,2.143-3.532,3.334-5.855,3.334Z" fill="#ffc433"/><path d="M313.533,438.568c-1.178,0-2.371-.305-3.458-.95-3.23-1.913-4.297-6.082-2.384-9.313l14.874-25.113h-20.846c-2.42,0-4.658-1.287-5.876-3.379-1.217-2.092-1.23-4.672-.035-6.777l22.639-39.85c1.855-3.264,6.005-4.405,9.268-2.552c3.264,1.855,4.407,6.004,2.552,9.268l-16.87,29.694h21.093c2.442,0,4.696,1.309,5.906,3.431s1.187,4.728-.056,6.83l-20.953,35.375c-1.268,2.145-3.531,3.336-5.854,3.336Z" fill="#ffc433"/><path d="M497.107,403.47c-2.322,0-4.585-1.191-5.854-3.334l-24.86-41.974c-1.245-2.102-1.267-4.709-.056-6.83c1.209-2.122,3.463-3.432,5.905-3.432h15.963l-13.327-23.456c-1.855-3.264-.712-7.413,2.552-9.268c3.265-1.853,7.415-.711,9.268,2.552l19.095,33.612c1.195,2.105,1.182,4.685-.035,6.777-1.218,2.092-3.455,3.378-5.875,3.378h-15.717l18.783,31.714c1.913,3.231.846,7.4-2.384,9.313-1.086.642-2.279.948-3.458.948Z" fill="#ffc433"/></g></g>

</svg>
